# xmcd
#
# Track frame offsets: 
#        150
#        28587
#        47007
#        67150
#        93572
#        121312
#        142205
#        161712
#        185487
#        203867
#        222462
#        250027
#
# Disc length: 3697 seconds
#
# Revision: 4
# Processed by: cddbd v1.5.2PL0 Copyright (c) Steve Scherf et al.
# Submitted via: ExactAudioCopy v1.0b3
#
DISCID=ba0e6f0c
DTITLE=London Mozart Players - Stamitz
DYEAR=1994
DGENRE=Classical
TTITLE0=Carl Stamitz (1745-1801) - Symphony in F major Op24 No3 - Grav
TTITLE0=e - Allegro assai
TTITLE1=Carl Stamitz (1745-1801) - Symphony in F major Op24 No3 - Anda
TTITLE1=nte moderato -
TTITLE2=Carl Stamitz (1745-1801) - Symphony in F major Op24 No3 - Alle
TTITLE2=gretto - Allegro assai
TTITLE3=Carl Stamitz (1745-1801) - Symphony in C major Op13_16 No5 - G
TTITLE3=rave - Allegro assai
TTITLE4=Carl Stamitz (1745-1801) - Symphony in C major Op13_16 No5 - A
TTITLE4=ndante grazioso
TTITLE5=Carl Stamitz (1745-1801) - Symphony in C major Op13_16 No5 - A
TTITLE5=llegro
TTITLE6=Carl Stamitz (1745-1801) - Symphony in G major Op13_16 No4 - P
TTITLE6=resto
TTITLE7=Carl Stamitz (1745-1801) - Symphony in G major Op13_16 No4 - A
TTITLE7=ndantino
TTITLE8=Carl Stamitz (1745-1801) - Symphony in G major Op13_16 No4 - P
TTITLE8=restissimo
TTITLE9=Carl Stamitz (1745-1801) - Symphony in D major 'La Chasse' - G
TTITLE9=rave - Allegro
TTITLE10=Carl Stamitz (1745-1801) - Symphony in D major 'La Chasse' - 
TTITLE10=Andante
TTITLE11=Carl Stamitz (1745-1801) - Symphony in D major 'La Chasse' - 
TTITLE11=Allegro moderato - Presto
EXTD=YEAR: 1994
EXTT0=
EXTT1=
EXTT2=
EXTT3=
EXTT4=
EXTT5=
EXTT6=
EXTT7=
EXTT8=
EXTT9=
EXTT10=
EXTT11=
PLAYORDER=
